<?xml version="1.0" encoding="UTF-8"?>
<svg width="79px" height="64px" viewBox="0 0 79 64" version="1.1" xmlns="http://www.w3.org/2000/svg" xmlns:xlink="http://www.w3.org/1999/xlink">
    <title>Group 4</title>
    <g id="Page-1" stroke="none" stroke-width="1" fill="none" fill-rule="evenodd">
        <g id="CCCM---OPSMAPS---Global" transform="translate(-420.000000, -667.000000)" stroke="#418FDE">
            <g id="Group-7" transform="translate(130.000000, 630.000000)">
                <g id="Group-4" transform="translate(329.500000, 69.000000) rotate(-270.000000) translate(-329.500000, -69.000000) translate(298.000000, 30.000000)">
                    <path d="M0,0 C5.46,2.23655914 9.03,5.87096774 10.71,10.9032258 C13.23,18.4516129 13.86,37.7419355 26.46,45.2903226 C39.06,52.8387097 51.03,51.1612903 55.44,63.7419355 C58.38,72.1290323 60.9,76.8817204 63,78" id="Path-2" opacity="0.501832508"></path>
                    <path d="M8.5,0.5 C13.18,2.39247312 16.24,5.46774194 17.68,9.72580645 C19.84,16.1129032 20.38,32.4354839 31.18,38.8225806 C41.98,45.2096774 52.24,43.7903226 56.02,54.4354839 C58.54,61.5322581 60.7,65.5537634 62.5,66.5" id="Path-2-Copy" opacity="0.132219587"></path>
                    <path d="M26,0 C29.12,1.74910394 31.16,4.59139785 32.12,8.52688172 C33.56,14.4301075 33.92,29.516129 41.12,35.4193548 C48.32,41.3225806 55.16,40.0107527 57.68,49.8494624 C59.36,56.4086022 60.8,60.125448 62,61" id="Path-2-Copy-2" opacity="0.132219587"></path>
                </g>
            </g>
        </g>
    </g>
</svg>