<?xml version="1.0" encoding="UTF-8"?>
<svg width="41px" height="57px" viewBox="0 0 41 57" version="1.1" xmlns="http://www.w3.org/2000/svg" xmlns:xlink="http://www.w3.org/1999/xlink">
    <title>Group 4 Copy 2</title>
    <g id="Page-1" stroke="none" stroke-width="1" fill="none" fill-rule="evenodd">
        <g id="CCCM---OPSMAPS---Global" transform="translate(-1260.000000, -674.000000)" stroke="#418FDE">
            <g id="Group-7" transform="translate(130.000000, 630.000000)">
                <g id="Group-4-Copy-2" transform="translate(1150.750000, 72.500000) rotate(-270.000000) translate(-1150.750000, -72.500000) translate(1123.250000, 52.750000)">
                    <path d="M0,0.5 C4.76666667,1.61827957 7.88333333,3.43548387 9.35,5.9516129 C11.55,9.72580645 12.1,19.3709677 23.1,23.1451613 C34.1,26.9193548 44.55,26.0806452 48.4,32.3709677 C50.9666667,36.5645161 53.1666667,38.9408602 55,39.5" id="Path-2" opacity="0.501832508"></path>
                    <path d="M7,0.5 C11.0733333,1.44623656 13.7366667,2.98387097 14.99,5.11290323 C16.87,8.30645161 17.34,16.4677419 26.74,19.6612903 C36.14,22.8548387 45.07,22.1451613 48.36,27.4677419 C50.5533333,31.016129 52.4333333,33.0268817 54,33.5" id="Path-2-Copy" opacity="0.132219587"></path>
                    <path d="M22.5,4.54747351e-13 C25.2733333,0.888888889 27.0866667,2.33333333 27.94,4.33333333 C29.22,7.33333333 29.54,15 35.94,18 C42.34,21 48.42,20.3333333 50.66,25.3333333 C52.1533333,28.6666667 53.4333333,30.5555556 54.5,31" id="Path-2-Copy-2" opacity="0.132219587"></path>
                </g>
            </g>
        </g>
    </g>
</svg>