<?xml version="1.0" encoding="UTF-8"?>
<svg width="130px" height="50px" viewBox="0 0 130 50" version="1.1" xmlns="http://www.w3.org/2000/svg" xmlns:xlink="http://www.w3.org/1999/xlink">
    <title>Group 4 Copy</title>
    <g id="Page-1" stroke="none" stroke-width="1" fill="none" fill-rule="evenodd">
        <g id="CCCM---OPSMAPS---Global" transform="translate(-770.000000, -681.000000)" stroke="#418FDE">
            <g id="Group-7" transform="translate(130.000000, 630.000000)">
                <g id="Group-4-Copy" transform="translate(705.000000, 76.250000) rotate(-270.000000) translate(-705.000000, -76.250000) translate(680.750000, 12.250000)">
                    <path d="M0,6.82121026e-13 C4.16,3.6702509 6.88,9.6344086 8.16,17.8924731 C10.08,30.2795699 10.56,61.9354839 20.16,74.3225806 C29.76,86.7096774 38.88,83.9569892 42.24,104.602151 C44.48,118.365591 46.4,126.164875 48,128" id="Path-2" opacity="0.501832508"></path>
                    <path d="M6.5,0.5 C10.0533333,3.59677419 12.3766667,8.62903226 13.47,15.5967742 C15.11,26.0483871 15.52,52.7580645 23.72,63.2096774 C31.92,73.6612903 39.71,71.3387097 42.58,88.7580645 C44.4933333,100.370968 46.1333333,106.951613 47.5,108.5" id="Path-2-Copy" opacity="0.132219587"></path>
                    <path d="M21.5,0.5 C23.84,3.36738351 25.37,8.02688172 26.09,14.4784946 C27.17,24.155914 27.44,48.8870968 32.84,58.5645161 C38.24,68.2419355 43.37,66.0913978 45.26,82.2204301 C46.52,92.9731183 47.6,99.0663082 48.5,100.5" id="Path-2-Copy-2" opacity="0.132219587"></path>
                </g>
            </g>
        </g>
    </g>
</svg>